<mxfile host="app.diagrams.net" modified="2023-09-18T14:10:30.904Z" agent="Mozilla/5.0 (Windows NT 10.0; Win64; x64) AppleWebKit/537.36 (KHTML, like Gecko) Chrome/116.0.0.0 Safari/537.36" etag="o6SGvGep72l13GSK8qHd" version="21.7.5" type="github">
  <diagram id="C5RBs43oDa-KdzZeNtuy" name="Page-1">
    <mxGraphModel dx="1050" dy="566" grid="1" gridSize="10" guides="1" tooltips="1" connect="1" arrows="1" fold="1" page="1" pageScale="1" pageWidth="827" pageHeight="1169" math="0" shadow="0">
      <root>
        <mxCell id="WIyWlLk6GJQsqaUBKTNV-0" />
        <mxCell id="WIyWlLk6GJQsqaUBKTNV-1" parent="WIyWlLk6GJQsqaUBKTNV-0" />
        <mxCell id="LPeFusDSENl2MgYM5kZ1-2" value="" style="edgeStyle=orthogonalEdgeStyle;rounded=0;orthogonalLoop=1;jettySize=auto;html=1;" edge="1" parent="WIyWlLk6GJQsqaUBKTNV-1" source="LPeFusDSENl2MgYM5kZ1-0" target="LPeFusDSENl2MgYM5kZ1-1">
          <mxGeometry relative="1" as="geometry" />
        </mxCell>
        <mxCell id="LPeFusDSENl2MgYM5kZ1-0" value="START" style="ellipse;whiteSpace=wrap;html=1;" vertex="1" parent="WIyWlLk6GJQsqaUBKTNV-1">
          <mxGeometry x="130" y="50" width="170" height="70" as="geometry" />
        </mxCell>
        <mxCell id="LPeFusDSENl2MgYM5kZ1-4" value="" style="edgeStyle=orthogonalEdgeStyle;rounded=0;orthogonalLoop=1;jettySize=auto;html=1;" edge="1" parent="WIyWlLk6GJQsqaUBKTNV-1" source="LPeFusDSENl2MgYM5kZ1-1" target="LPeFusDSENl2MgYM5kZ1-3">
          <mxGeometry relative="1" as="geometry" />
        </mxCell>
        <mxCell id="LPeFusDSENl2MgYM5kZ1-1" value="Rangkaian&lt;br&gt;Menyala" style="shape=hexagon;perimeter=hexagonPerimeter2;whiteSpace=wrap;html=1;fixedSize=1;" vertex="1" parent="WIyWlLk6GJQsqaUBKTNV-1">
          <mxGeometry x="155" y="160" width="120" height="80" as="geometry" />
        </mxCell>
        <mxCell id="LPeFusDSENl2MgYM5kZ1-8" value="" style="edgeStyle=orthogonalEdgeStyle;rounded=0;orthogonalLoop=1;jettySize=auto;html=1;" edge="1" parent="WIyWlLk6GJQsqaUBKTNV-1" source="LPeFusDSENl2MgYM5kZ1-3">
          <mxGeometry relative="1" as="geometry">
            <mxPoint x="215" y="380" as="targetPoint" />
          </mxGeometry>
        </mxCell>
        <mxCell id="LPeFusDSENl2MgYM5kZ1-10" value="" style="edgeStyle=orthogonalEdgeStyle;rounded=0;orthogonalLoop=1;jettySize=auto;html=1;" edge="1" parent="WIyWlLk6GJQsqaUBKTNV-1" source="LPeFusDSENl2MgYM5kZ1-3" target="LPeFusDSENl2MgYM5kZ1-9">
          <mxGeometry relative="1" as="geometry" />
        </mxCell>
        <mxCell id="LPeFusDSENl2MgYM5kZ1-3" value="Menyambungkan wifi dan LoRa" style="whiteSpace=wrap;html=1;" vertex="1" parent="WIyWlLk6GJQsqaUBKTNV-1">
          <mxGeometry x="155" y="280" width="120" height="60" as="geometry" />
        </mxCell>
        <mxCell id="LPeFusDSENl2MgYM5kZ1-14" value="" style="edgeStyle=orthogonalEdgeStyle;rounded=0;orthogonalLoop=1;jettySize=auto;html=1;" edge="1" parent="WIyWlLk6GJQsqaUBKTNV-1" source="LPeFusDSENl2MgYM5kZ1-9" target="LPeFusDSENl2MgYM5kZ1-13">
          <mxGeometry relative="1" as="geometry" />
        </mxCell>
        <mxCell id="LPeFusDSENl2MgYM5kZ1-9" value="Menunggu siswa menekan tombol" style="whiteSpace=wrap;html=1;" vertex="1" parent="WIyWlLk6GJQsqaUBKTNV-1">
          <mxGeometry x="155" y="380" width="120" height="60" as="geometry" />
        </mxCell>
        <mxCell id="LPeFusDSENl2MgYM5kZ1-16" value="" style="edgeStyle=orthogonalEdgeStyle;rounded=0;orthogonalLoop=1;jettySize=auto;html=1;" edge="1" parent="WIyWlLk6GJQsqaUBKTNV-1" source="LPeFusDSENl2MgYM5kZ1-13" target="LPeFusDSENl2MgYM5kZ1-15">
          <mxGeometry relative="1" as="geometry" />
        </mxCell>
        <mxCell id="LPeFusDSENl2MgYM5kZ1-13" value="Tombol ditekan" style="rhombus;whiteSpace=wrap;html=1;" vertex="1" parent="WIyWlLk6GJQsqaUBKTNV-1">
          <mxGeometry x="165" y="484.5" width="100" height="100" as="geometry" />
        </mxCell>
        <mxCell id="LPeFusDSENl2MgYM5kZ1-15" value="1" style="ellipse;whiteSpace=wrap;html=1;" vertex="1" parent="WIyWlLk6GJQsqaUBKTNV-1">
          <mxGeometry x="175" y="620" width="80" height="80" as="geometry" />
        </mxCell>
        <mxCell id="LPeFusDSENl2MgYM5kZ1-19" value="" style="endArrow=classic;html=1;rounded=0;exitX=1;exitY=0.5;exitDx=0;exitDy=0;entryX=1;entryY=0.5;entryDx=0;entryDy=0;" edge="1" parent="WIyWlLk6GJQsqaUBKTNV-1" source="LPeFusDSENl2MgYM5kZ1-13" target="LPeFusDSENl2MgYM5kZ1-9">
          <mxGeometry width="50" height="50" relative="1" as="geometry">
            <mxPoint x="390" y="500" as="sourcePoint" />
            <mxPoint x="440" y="450" as="targetPoint" />
            <Array as="points">
              <mxPoint x="350" y="535" />
              <mxPoint x="350" y="410" />
            </Array>
          </mxGeometry>
        </mxCell>
        <mxCell id="LPeFusDSENl2MgYM5kZ1-20" value="Tidak" style="text;html=1;strokeColor=none;fillColor=none;align=center;verticalAlign=middle;whiteSpace=wrap;rounded=0;" vertex="1" parent="WIyWlLk6GJQsqaUBKTNV-1">
          <mxGeometry x="265" y="510" width="60" height="30" as="geometry" />
        </mxCell>
        <mxCell id="LPeFusDSENl2MgYM5kZ1-21" value="Iya" style="text;html=1;strokeColor=none;fillColor=none;align=center;verticalAlign=middle;whiteSpace=wrap;rounded=0;" vertex="1" parent="WIyWlLk6GJQsqaUBKTNV-1">
          <mxGeometry x="168" y="580" width="60" height="30" as="geometry" />
        </mxCell>
        <mxCell id="LPeFusDSENl2MgYM5kZ1-25" value="" style="edgeStyle=orthogonalEdgeStyle;rounded=0;orthogonalLoop=1;jettySize=auto;html=1;" edge="1" parent="WIyWlLk6GJQsqaUBKTNV-1" source="LPeFusDSENl2MgYM5kZ1-22" target="LPeFusDSENl2MgYM5kZ1-23">
          <mxGeometry relative="1" as="geometry" />
        </mxCell>
        <mxCell id="LPeFusDSENl2MgYM5kZ1-22" value="1" style="ellipse;whiteSpace=wrap;html=1;aspect=fixed;" vertex="1" parent="WIyWlLk6GJQsqaUBKTNV-1">
          <mxGeometry x="440" y="50" width="80" height="80" as="geometry" />
        </mxCell>
        <mxCell id="LPeFusDSENl2MgYM5kZ1-27" value="" style="edgeStyle=orthogonalEdgeStyle;rounded=0;orthogonalLoop=1;jettySize=auto;html=1;" edge="1" parent="WIyWlLk6GJQsqaUBKTNV-1" source="LPeFusDSENl2MgYM5kZ1-23" target="LPeFusDSENl2MgYM5kZ1-26">
          <mxGeometry relative="1" as="geometry" />
        </mxCell>
        <mxCell id="LPeFusDSENl2MgYM5kZ1-23" value="Data dikirim dari lora transmitter ke receiver" style="shape=parallelogram;perimeter=parallelogramPerimeter;whiteSpace=wrap;html=1;fixedSize=1;" vertex="1" parent="WIyWlLk6GJQsqaUBKTNV-1">
          <mxGeometry x="400" y="170" width="160" height="60" as="geometry" />
        </mxCell>
        <mxCell id="LPeFusDSENl2MgYM5kZ1-29" value="" style="edgeStyle=orthogonalEdgeStyle;rounded=0;orthogonalLoop=1;jettySize=auto;html=1;" edge="1" parent="WIyWlLk6GJQsqaUBKTNV-1" source="LPeFusDSENl2MgYM5kZ1-26" target="LPeFusDSENl2MgYM5kZ1-28">
          <mxGeometry relative="1" as="geometry" />
        </mxCell>
        <mxCell id="LPeFusDSENl2MgYM5kZ1-26" value="NodeMCU mengirim data yang diterima dari lora ke Web Server&amp;nbsp;" style="shape=parallelogram;perimeter=parallelogramPerimeter;whiteSpace=wrap;html=1;fixedSize=1;" vertex="1" parent="WIyWlLk6GJQsqaUBKTNV-1">
          <mxGeometry x="375" y="270" width="210" height="70" as="geometry" />
        </mxCell>
        <mxCell id="LPeFusDSENl2MgYM5kZ1-28" value="END" style="ellipse;whiteSpace=wrap;html=1;" vertex="1" parent="WIyWlLk6GJQsqaUBKTNV-1">
          <mxGeometry x="415" y="390" width="130" height="70" as="geometry" />
        </mxCell>
      </root>
    </mxGraphModel>
  </diagram>
</mxfile>
